<?xml version="1.0" standalone="no"?>
<!DOCTYPE svg PUBLIC "-//W3C//DTD SVG 20010904//EN"
 "http://www.w3.org/TR/2001/REC-SVG-20010904/DTD/svg10.dtd">
<svg version="1.0" xmlns="http://www.w3.org/2000/svg"
 width="650.000000pt" height="650.000000pt" viewBox="0 0 650.000000 650.000000"
 preserveAspectRatio="xMidYMid meet">
<metadata>
Created by potrace 1.11, written by Peter Selinger 2001-2013
</metadata>
<g transform="translate(0.000000,650.000000) scale(0.100000,-0.100000)"
fill="#000000" stroke="none">
<path d="M1990 6479 c-38 -17 -51 -19 -87 -10 -73 19 -145 14 -197 -14 -34
-18 -63 -25 -102 -25 -59 0 -111 -17 -133 -43 -10 -13 -30 -17 -80 -17 -89 0
-163 -23 -210 -66 -34 -30 -45 -34 -93 -34 -70 0 -134 -32 -159 -80 -22 -40
-24 -111 -5 -155 12 -27 11 -35 -10 -77 -13 -26 -24 -62 -24 -80 0 -34 31
-111 48 -122 6 -3 8 -32 5 -69 -6 -68 5 -99 56 -166 19 -25 24 -43 22 -73 -3
-50 37 -135 79 -166 22 -17 30 -31 30 -54 0 -66 74 -166 148 -201 12 -6 25
-22 29 -36 18 -77 70 -129 165 -166 30 -11 50 -25 54 -39 18 -58 89 -113 172
-131 17 -3 32 -10 32 -13 0 -4 -37 -30 -83 -59 -170 -107 -286 -226 -366 -375
-74 -135 -105 -251 -121 -452 -13 -155 -25 -182 -110 -246 -259 -192 -421
-572 -382 -892 6 -51 19 -120 27 -153 28 -110 130 -299 203 -377 17 -19 33
-59 52 -135 15 -59 48 -162 72 -229 25 -66 48 -142 53 -170 21 -145 114 -347
219 -481 105 -133 289 -274 421 -325 22 -9 90 -51 150 -93 168 -117 320 -202
482 -266 57 -22 93 -45 139 -88 126 -118 317 -225 474 -265 119 -30 268 -41
392 -28 246 26 438 112 643 288 63 55 99 77 175 107 127 51 294 144 430 239
62 43 154 98 205 123 161 77 334 226 435 375 65 96 127 235 151 340 12 52 50
181 85 285 34 105 65 209 69 232 5 31 25 68 71 130 76 101 144 235 176 348 19
68 23 103 22 240 0 135 -3 173 -23 245 -26 97 -91 242 -148 327 -50 77 -163
194 -221 232 -68 43 -89 91 -96 217 -16 275 -98 488 -251 652 -72 78 -188 170
-275 219 -28 15 -50 30 -50 33 0 3 27 13 60 23 69 20 124 64 141 112 11 28 22
37 72 55 71 26 131 83 148 140 8 26 24 49 43 62 85 58 136 129 136 190 0 26 8
39 35 61 48 38 75 95 75 157 0 42 6 57 35 95 43 57 60 114 48 164 -8 30 -5 42
16 74 35 54 40 130 11 186 -18 36 -20 48 -11 73 18 51 13 129 -9 166 -27 44
-89 72 -162 72 -45 0 -59 4 -67 18 -5 10 -33 31 -62 47 -44 23 -67 29 -146 33
-51 3 -93 8 -93 12 0 3 -17 16 -39 28 -28 16 -56 22 -99 22 -46 0 -70 6 -103
25 -49 28 -133 34 -200 14 -33 -10 -45 -9 -90 11 -59 25 -97 23 -175 -10 -39
-17 -59 -19 -118 -14 -67 6 -76 4 -132 -24 -48 -24 -68 -29 -104 -25 -70 8
-122 -11 -183 -67 -49 -44 -60 -50 -100 -50 -37 0 -55 -7 -103 -43 -130 -95
-263 -293 -315 -466 -14 -47 -21 -44 -39 14 -17 54 -95 209 -133 265 -42 61
-131 154 -188 196 -38 27 -56 34 -94 34 -42 0 -52 4 -92 45 -58 57 -115 79
-185 73 -45 -5 -61 -1 -107 23 -54 29 -106 35 -161 20 -17 -5 -47 2 -95 21
-84 33 -116 34 -175 7z m263 -246 c49 -38 60 -43 73 -32 12 10 15 25 11 56
l-4 42 28 -15 c16 -8 61 -45 100 -81 79 -75 95 -74 93 3 0 24 2 44 6 44 5 0
53 -47 108 -105 55 -58 103 -105 106 -105 3 0 11 21 17 46 l12 45 44 -43 c64
-62 169 -223 208 -320 40 -97 59 -203 50 -273 -14 -106 -84 -207 -182 -262
l-39 -21 -45 35 c-207 165 -515 347 -799 472 -124 54 -352 143 -356 138 -2 -2
63 -39 144 -82 403 -219 727 -441 896 -613 l59 -61 -18 -48 c-61 -161 -204
-273 -424 -330 -73 -19 -132 -26 -246 -30 l-150 -5 36 26 c72 50 62 59 -81 71
-78 7 -189 30 -202 43 -5 5 10 16 32 26 22 9 40 21 40 26 0 4 -39 20 -87 35
-90 28 -197 77 -208 95 -4 6 10 10 37 10 39 0 79 14 68 23 -3 2 -45 25 -95 52
-49 26 -112 63 -138 83 -55 40 -50 52 21 52 24 0 42 4 40 9 -1 5 -39 36 -83
69 -44 33 -93 74 -109 91 l-30 31 45 0 c78 0 76 9 -26 112 -97 97 -120 137
-69 118 32 -13 75 -12 94 0 12 8 2 23 -56 78 -64 59 -114 119 -114 136 0 3 29
3 65 -1 45 -4 65 -2 65 5 0 23 -41 115 -75 168 -19 30 -35 57 -35 59 0 3 63 5
139 5 77 0 142 4 145 8 3 5 -11 24 -30 43 -35 34 -35 34 -12 41 41 11 131 8
203 -8 39 -8 82 -17 98 -21 22 -5 27 -2 27 15 0 11 -13 33 -30 49 -16 15 -30
31 -30 34 0 9 138 -18 212 -41 91 -28 101 -14 37 54 l-40 44 58 -13 c80 -19
140 -41 190 -71 24 -14 48 -22 53 -19 17 10 11 51 -10 78 -11 14 -20 28 -20
31 0 13 127 -58 183 -101z m2152 62 c-28 -42 -28 -44 -16 -64 8 -12 22 -8 83
23 71 36 218 81 218 67 0 -4 -16 -22 -35 -41 -19 -19 -35 -42 -35 -52 0 -22
-2 -22 78 2 66 20 212 51 212 45 0 -2 -13 -17 -30 -33 -16 -17 -30 -40 -30
-52 0 -19 4 -22 28 -17 15 4 59 13 97 21 72 16 162 19 203 8 23 -7 23 -7 -12
-41 -19 -19 -33 -38 -30 -43 3 -4 68 -8 145 -8 76 0 139 -3 139 -6 0 -3 -14
-26 -32 -52 -33 -47 -77 -146 -78 -171 0 -11 13 -13 65 -8 l65 6 -16 -32 c-9
-18 -51 -65 -93 -105 -61 -59 -73 -74 -61 -82 19 -13 62 -13 94 0 14 5 26 7
26 3 0 -19 -52 -82 -121 -146 -87 -82 -87 -86 6 -87 l40 -1 -50 -46 c-27 -25
-80 -67 -117 -93 -37 -26 -64 -50 -61 -54 3 -3 25 -6 47 -6 71 0 72 -13 9 -57
-32 -22 -95 -59 -140 -82 -46 -23 -83 -45 -83 -50 0 -13 27 -21 71 -21 27 0
38 -4 33 -11 -10 -17 -139 -74 -221 -98 -40 -12 -73 -26 -73 -32 0 -5 19 -18
42 -28 l42 -17 -43 -17 c-23 -10 -99 -24 -167 -31 -69 -8 -128 -17 -131 -20
-8 -8 17 -36 52 -58 l30 -18 -111 0 c-268 0 -505 83 -624 217 -42 48 -100 154
-100 183 0 26 163 178 303 282 156 116 354 240 607 380 107 59 191 108 187
108 -4 0 -78 -28 -165 -61 -358 -140 -696 -325 -954 -522 l-86 -66 -60 38
c-206 133 -213 390 -20 688 46 70 146 193 157 193 4 0 12 -20 19 -45 7 -25 15
-45 19 -45 5 0 37 35 73 76 36 42 82 89 103 106 l37 30 0 -39 c0 -22 6 -48 14
-58 13 -18 16 -16 62 31 51 51 142 119 150 111 2 -2 1 -15 -4 -28 -10 -25 -1
-62 17 -73 5 -4 40 17 78 45 59 46 162 102 171 94 2 -1 -8 -20 -23 -40z m-885
-1664 c228 -77 397 -215 430 -350 44 -185 -164 -341 -511 -382 -185 -21 -372
0 -539 60 -238 87 -357 257 -277 394 61 103 230 225 387 277 104 35 137 39
280 36 121 -3 145 -6 230 -35z m-1118 -97 c66 -8 73 -20 43 -80 -99 -199 -733
-735 -957 -810 -37 -12 -52 -13 -69 -4 -21 12 -22 16 -16 119 8 136 35 242 94
361 39 80 60 109 137 185 69 69 110 101 171 132 190 97 360 124 597 97z m2036
-29 c336 -70 564 -302 627 -637 9 -48 15 -121 13 -165 l-3 -78 -45 1 c-120 1
-470 253 -781 564 -172 171 -229 244 -229 291 0 26 3 28 58 34 31 3 64 8 72
10 30 8 219 -5 288 -20z m-323 -645 c405 -59 729 -439 727 -855 -2 -256 -122
-465 -326 -566 -180 -89 -380 -86 -584 7 -315 144 -531 498 -509 834 17 257
165 467 385 547 111 40 193 49 307 33z m-1386 -64 c462 -159 540 -795 147
-1204 -146 -153 -330 -239 -531 -249 -194 -9 -332 42 -460 171 -81 82 -125
163 -157 288 -40 161 -12 381 70 543 123 245 346 421 603 475 80 17 245 5 328
-24z m2512 -408 c217 -145 339 -377 339 -643 0 -205 -84 -422 -206 -535 -40
-36 -50 -41 -77 -36 -94 19 -184 202 -242 490 -71 358 -51 682 47 750 36 26
72 19 139 -26z m-3868 11 c113 -51 130 -457 36 -839 -55 -222 -124 -361 -196
-395 -35 -17 -38 -17 -71 1 -42 23 -113 111 -151 189 -152 310 -105 664 118
898 82 85 180 157 217 157 13 0 34 -5 47 -11z m2089 -944 c151 -31 270 -97
384 -211 64 -63 90 -99 123 -165 127 -258 81 -539 -123 -744 -93 -94 -174
-145 -296 -185 -219 -74 -433 -56 -645 53 -117 61 -238 183 -294 299 -107 222
-91 454 47 655 99 144 274 259 456 298 81 18 265 18 348 0z m1607 -267 c27
-14 57 -39 73 -63 63 -93 106 -308 94 -463 -16 -187 -72 -325 -192 -471 -135
-164 -304 -277 -484 -322 -152 -39 -324 -15 -397 53 -69 65 -86 251 -39 430
58 220 148 379 310 546 265 274 475 369 635 290z m-3391 -92 c76 -21 172 -68
259 -128 95 -66 236 -203 290 -283 129 -192 201 -441 174 -600 -30 -169 -108
-222 -315 -213 -194 9 -360 90 -526 257 -77 78 -104 113 -142 186 -141 275
-157 593 -36 731 52 59 180 81 296 50z m1858 -1217 c111 -15 258 -55 330 -89
70 -34 134 -98 134 -134 0 -133 -263 -348 -515 -421 -224 -65 -455 -31 -675
99 -131 77 -254 198 -266 262 -21 112 168 217 491 275 117 20 381 25 501 8z"/>
</g>
</svg>
