<?xml version="1.0" standalone="no"?>
<!DOCTYPE svg PUBLIC "-//W3C//DTD SVG 20010904//EN"
 "http://www.w3.org/TR/2001/REC-SVG-20010904/DTD/svg10.dtd">
<svg version="1.0" xmlns="http://www.w3.org/2000/svg"
 width="716.000000pt" height="716.000000pt" viewBox="0 0 716.000000 716.000000"
 preserveAspectRatio="xMidYMid meet">
<metadata>
Created by potrace 1.11, written by Peter Selinger 2001-2013
</metadata>
<g transform="translate(0.000000,716.000000) scale(0.100000,-0.100000)"
fill="#000000" stroke="none">
<path d="M2280 7151 c-14 -4 -35 -14 -46 -21 -17 -11 -36 -10 -107 4 -98 20
-146 12 -197 -30 -25 -21 -36 -25 -68 -19 -50 8 -129 -10 -167 -39 -24 -19
-47 -24 -124 -29 -106 -7 -188 -38 -211 -82 -12 -23 -19 -25 -82 -25 -81 0
-134 -23 -169 -72 -31 -42 -38 -141 -15 -186 15 -30 15 -33 -9 -78 -34 -63
-33 -125 1 -190 22 -41 26 -61 24 -121 -1 -78 5 -96 56 -160 31 -37 34 -48 34
-105 0 -53 5 -72 28 -109 16 -24 43 -56 60 -71 26 -22 32 -34 32 -68 0 -66 34
-112 146 -198 33 -25 43 -40 48 -72 9 -56 71 -117 157 -154 54 -24 68 -35 78
-62 20 -56 68 -92 158 -121 l83 -25 -76 -44 c-103 -58 -168 -110 -257 -203
-86 -90 -139 -165 -194 -276 -76 -150 -123 -347 -123 -513 0 -88 -29 -154 -87
-197 -155 -117 -286 -286 -361 -467 -147 -353 -89 -775 147 -1083 34 -43 61
-87 61 -96 0 -31 69 -258 111 -365 22 -57 50 -148 60 -201 73 -357 306 -657
639 -822 52 -26 131 -73 174 -105 166 -120 364 -229 544 -302 69 -28 97 -46
142 -91 78 -79 200 -168 300 -218 455 -227 987 -143 1349 213 73 72 99 91 173
123 161 71 320 161 460 261 39 27 105 62 152 79 423 153 740 574 762 1014 4
80 14 136 35 205 15 52 38 136 49 185 17 72 30 101 63 145 72 94 116 172 156
275 46 117 58 173 70 315 32 365 -141 746 -433 955 -81 58 -102 106 -115 265
-5 69 -19 161 -30 204 -68 262 -238 501 -461 652 -108 73 -113 86 -40 98 60 9
147 44 180 72 16 14 35 41 42 61 11 29 25 42 88 74 41 21 82 44 91 51 24 20
50 64 63 107 9 30 26 50 81 92 76 59 115 119 115 178 0 27 10 45 49 86 54 57
77 116 66 171 -5 28 1 42 39 94 49 66 64 122 49 180 -8 28 -4 42 20 87 38 71
40 148 3 203 l-25 38 20 38 c24 48 24 97 0 149 -35 76 -85 105 -182 105 -55 0
-61 2 -98 39 -47 47 -86 60 -206 68 -65 4 -96 10 -110 23 -38 34 -70 44 -140
44 -60 1 -76 5 -113 30 -37 26 -52 30 -105 28 -34 0 -84 -7 -111 -14 -46 -13
-52 -12 -95 10 -56 29 -107 26 -202 -13 -54 -21 -71 -24 -93 -15 -50 19 -101
11 -171 -24 -58 -29 -72 -33 -97 -24 -49 17 -112 1 -175 -46 -32 -24 -67 -53
-77 -64 -14 -16 -31 -22 -63 -22 -62 0 -107 -27 -189 -112 -115 -118 -205
-270 -269 -451 l-28 -79 -32 90 c-62 172 -152 323 -270 450 -64 70 -123 102
-184 102 -38 0 -50 6 -102 54 -75 70 -134 93 -199 80 -43 -9 -53 -7 -100 18
-67 36 -113 44 -170 29 -42 -11 -51 -10 -105 14 -64 29 -135 39 -175 26z m133
-201 c32 -16 87 -52 123 -80 35 -27 68 -50 73 -50 22 0 30 87 9 108 -23 23 8
12 55 -19 26 -17 71 -57 100 -90 49 -54 55 -58 73 -45 15 11 19 26 18 65 0 42
2 49 15 41 20 -10 145 -141 188 -195 l32 -40 15 37 c9 21 16 44 16 53 0 25 15
17 57 -27 109 -119 183 -247 239 -413 65 -191 48 -325 -56 -438 -26 -29 -71
-65 -100 -81 l-51 -28 -55 44 c-290 229 -686 451 -1094 611 -229 90 -237 90
-64 -1 412 -217 794 -477 1011 -689 l94 -91 -20 -51 c-65 -172 -203 -287 -416
-349 -161 -47 -332 -70 -431 -57 l-59 7 35 18 c19 10 44 28 55 40 16 18 17 23
5 30 -8 6 -37 10 -65 10 -95 0 -295 41 -295 60 0 4 13 10 28 13 28 6 81 42 72
49 -3 2 -54 19 -115 37 -113 34 -215 77 -215 90 0 4 18 8 41 9 22 1 52 8 67
16 26 14 26 14 -73 64 -55 27 -129 72 -165 98 l-65 49 62 5 c55 4 84 14 72 23
-2 2 -40 29 -84 59 -44 31 -100 77 -125 102 l-44 46 60 0 c33 0 64 3 67 6 4 4
-40 52 -97 108 -56 56 -108 111 -114 123 -11 21 -11 21 23 12 52 -15 120 -8
120 11 0 9 -29 41 -65 71 -64 55 -130 131 -130 151 0 6 25 7 71 3 l72 -7 -7
28 c-10 43 -71 169 -100 207 l-25 32 97 -4 c52 -1 130 0 171 4 l76 7 -48 44
-48 43 26 7 c45 11 206 -3 270 -23 69 -22 85 -20 85 11 0 25 -14 46 -50 71
-25 17 -24 17 37 11 33 -3 104 -19 156 -36 52 -16 97 -30 101 -30 3 0 6 10 6
23 0 26 -24 58 -63 82 -15 10 -26 20 -23 22 11 11 174 -40 243 -76 42 -22 80
-38 85 -35 17 11 7 63 -18 93 -33 39 -17 40 59 1z m2462 -6 c-26 -38 -33 -78
-15 -89 5 -3 33 8 63 25 57 32 167 72 230 84 l39 7 -46 -44 c-68 -65 -60 -102
17 -74 72 27 190 57 225 57 l33 0 -35 -34 c-36 -33 -47 -71 -24 -78 7 -3 40 4
73 15 62 20 249 35 281 23 15 -6 11 -13 -25 -50 l-43 -44 66 -7 c36 -4 111 -6
166 -3 55 2 100 3 100 2 0 -1 -17 -28 -39 -60 -32 -50 -91 -177 -91 -199 0 -3
34 -3 76 1 l77 7 -19 -33 c-10 -18 -59 -70 -108 -115 -49 -47 -85 -88 -82 -94
9 -14 96 -14 130 -1 48 18 28 -11 -88 -126 -80 -79 -109 -114 -99 -118 8 -3
40 -6 71 -6 l57 -1 -54 -50 c-50 -47 -177 -141 -204 -153 -28 -11 21 -26 76
-24 31 2 56 0 55 -4 -9 -26 -216 -154 -308 -191 -30 -12 21 -37 74 -37 l51 -1
-23 -18 c-25 -22 -121 -59 -232 -92 -41 -12 -79 -25 -84 -30 -11 -10 53 -49
82 -49 12 0 22 -4 22 -9 0 -15 -111 -41 -220 -52 -58 -6 -115 -13 -128 -15
-36 -7 -23 -35 28 -63 l45 -25 -40 -9 c-58 -13 -216 0 -336 27 -210 48 -335
109 -424 208 -45 50 -115 176 -115 208 0 22 160 177 285 276 192 152 476 334
782 500 180 97 173 98 -56 7 -398 -157 -794 -378 -1050 -586 l-75 -60 -44 24
c-118 62 -192 177 -200 310 -10 173 109 446 266 612 30 31 59 57 64 57 4 0 8
-12 8 -27 1 -16 6 -38 14 -51 12 -23 14 -21 89 67 64 74 144 151 158 151 2 0
3 -21 1 -48 -3 -37 1 -51 15 -65 18 -16 22 -14 79 45 57 59 129 118 145 118 4
0 2 -13 -4 -30 -12 -31 -1 -80 19 -87 5 -2 39 20 75 48 55 45 168 109 191 109
4 0 -4 -16 -17 -36z m-1049 -1819 c216 -57 441 -218 507 -364 14 -33 18 -59
15 -105 -3 -53 -10 -70 -46 -121 -23 -33 -63 -74 -89 -92 -171 -115 -387 -162
-665 -145 -185 12 -289 37 -423 102 -111 54 -173 104 -215 175 -31 52 -35 68
-35 125 1 80 24 127 97 200 105 103 267 193 414 229 123 30 313 28 440 -4z
m-1211 -136 c42 -7 86 -19 98 -29 l21 -18 -19 -43 c-95 -211 -733 -756 -1024
-874 -113 -46 -137 -25 -125 110 15 178 61 317 149 451 143 220 365 362 635
407 53 9 192 7 265 -4z m2172 0 c109 -14 257 -67 354 -125 185 -112 341 -316
398 -524 26 -93 43 -253 33 -310 -10 -57 -31 -62 -116 -25 -242 107 -714 492
-946 772 -71 86 -110 159 -95 182 3 5 38 15 78 21 39 6 79 13 87 15 36 7 134
4 207 -6z m-250 -744 c151 -32 262 -85 386 -185 184 -148 308 -356 357 -602
14 -71 14 -244 1 -316 -29 -150 -100 -282 -203 -377 -86 -80 -176 -123 -312
-151 -66 -14 -92 -14 -173 -4 -138 17 -206 39 -322 104 -181 102 -303 236
-401 441 -66 137 -87 216 -95 365 -14 225 47 405 189 557 46 50 79 73 152 110
141 70 278 89 421 58z m-1547 -45 c139 -47 270 -143 344 -254 70 -106 126
-288 126 -412 0 -65 -25 -229 -46 -299 -22 -76 -88 -202 -147 -280 -156 -208
-350 -334 -576 -372 -267 -46 -528 65 -672 285 -167 254 -159 588 21 908 32
56 75 109 145 180 144 144 273 219 450 260 88 20 271 12 355 -16z m2740 -444
c134 -87 257 -232 323 -382 52 -118 62 -176 62 -349 -1 -154 -2 -164 -34 -255
-18 -52 -48 -123 -66 -156 -47 -83 -133 -189 -172 -210 -31 -17 -32 -17 -66 9
-78 59 -173 281 -217 507 -31 160 -60 400 -60 503 0 159 39 331 83 370 29 26
63 17 147 -37z m-4168 -18 c41 -44 58 -87 74 -188 37 -227 -1 -635 -79 -848
-14 -37 -32 -88 -41 -113 -21 -58 -87 -161 -122 -188 -61 -48 -98 -34 -172 61
-141 184 -208 413 -183 629 32 282 196 538 423 662 46 24 65 21 100 -15z
m2294 -1040 c123 -34 184 -63 282 -137 102 -77 166 -156 226 -275 38 -75 49
-110 62 -199 16 -100 16 -116 1 -207 -52 -318 -303 -566 -644 -636 -94 -20
-306 -14 -395 11 -271 74 -472 263 -554 520 -27 85 -27 315 0 395 46 136 141
280 236 357 70 57 204 130 286 157 161 52 339 57 500 14z m1685 -273 c87 -31
140 -107 181 -257 20 -72 23 -105 22 -248 -1 -148 -3 -174 -28 -255 -14 -49
-44 -127 -66 -171 -153 -314 -490 -530 -835 -537 -90 -2 -106 1 -157 25 -59
27 -105 78 -134 148 -8 19 -17 82 -21 140 -4 85 -2 123 15 200 21 95 63 213
103 291 60 119 290 429 317 429 4 0 23 15 42 33 105 99 236 178 335 202 71 18
175 18 226 0z m-3606 -118 c135 -45 265 -139 409 -295 108 -118 148 -177 225
-327 101 -197 131 -378 90 -539 -13 -54 -96 -150 -147 -172 -60 -25 -141 -28
-243 -9 -401 73 -703 372 -785 775 -21 108 -15 328 11 408 29 84 102 157 185
183 39 13 189 -1 255 -24z m2010 -1342 c194 -31 357 -97 415 -167 30 -36 35
-50 34 -90 -1 -40 -8 -57 -43 -101 -170 -221 -424 -357 -696 -373 -231 -14
-438 49 -629 192 -89 67 -192 180 -203 222 -30 119 148 245 431 303 198 41
488 47 691 14z"/>
</g>
</svg>
